HIERARCHY
ROOT Hips
{
  OFFSET 5.80788e-005 67.184 3.4734
  CHANNELS 6 Xposition Yposition Zposition Zrotation Xrotation Yrotation
  JOINT Chest
  {
    OFFSET 0 8.7983 -4.7612
    CHANNELS 6 Xposition Yposition Zposition Zrotation Xrotation Yrotation
    JOINT Chest2
    {
      OFFSET 0 8.0291 0.4195
      CHANNELS 6 Xposition Yposition Zposition Zrotation Xrotation Yrotation
      JOINT Chest3
      {
        OFFSET 0 9.9351 -2.2114
        CHANNELS 6 Xposition Yposition Zposition Zrotation Xrotation Yrotation
        JOINT Neck
        {
          OFFSET 0 22.3885 -0.4656
          CHANNELS 6 Xposition Yposition Zposition Zrotation Xrotation Yrotation
          JOINT Head
          {
            OFFSET -0.0001 12.643 3.4389
            CHANNELS 6 Xposition Yposition Zposition Zrotation Xrotation Yrotation
            End Site
            {
              OFFSET 0.0001 17.6655 0.5274
            }
          }
        }
        JOINT LeftCollar
        {
          OFFSET 2.2603 21.606 7.4023
          CHANNELS 6 Xposition Yposition Zposition Zrotation Xrotation Yrotation
          JOINT LeftShoulder
          {
            OFFSET 13.5163 -1.1332 -5.0146
            CHANNELS 6 Xposition Yposition Zposition Zrotation Xrotation Yrotation
            JOINT LeftElbow
            {
              OFFSET -0.0995 -28.05 -0.2431
              CHANNELS 6 Xposition Yposition Zposition Zrotation Xrotation Yrotation
              JOINT LeftWrist
              {
                OFFSET 0.0679 -23.3996 -0.1402
                CHANNELS 6 Xposition Yposition Zposition Zrotation Xrotation Yrotation
                JOINT LeftFinger1
                {
                  OFFSET 0.7932 -9.069 2.5189
                  CHANNELS 6 Xposition Yposition Zposition Zrotation Xrotation Yrotation
                  JOINT LeftFinger11
                  {
                    OFFSET -0.8272 -3.3923 0.5977
                    CHANNELS 6 Xposition Yposition Zposition Zrotation Xrotation Yrotation
                    JOINT LeftFinger12
                    {
                      OFFSET -0.5649 -2.3158 0.4082
                      CHANNELS 6 Xposition Yposition Zposition Zrotation Xrotation Yrotation
                      End Site
                      {
                        OFFSET -0.4919 -1.6479 0.2673
                      }
                    }
                  }
                }
                JOINT LeftFinger2
                {
                  OFFSET 0.9159 -9.2044 0.2193
                  CHANNELS 6 Xposition Yposition Zposition Zrotation Xrotation Yrotation
                  JOINT LeftFinger21
                  {
                    OFFSET 0.0117 -4.1944 -0.0248
                    CHANNELS 6 Xposition Yposition Zposition Zrotation Xrotation Yrotation
                    JOINT LeftFinger22
                    {
                      OFFSET 0.0071 -2.3249 -0.0142
                      CHANNELS 6 Xposition Yposition Zposition Zrotation Xrotation Yrotation
                      End Site
                      {
                        OFFSET -0.1475 -2.0882 0.0028
                      }
                    }
                  }
                }
                JOINT LeftFinger3
                {
                  OFFSET 0.6113 -8.7231 -2.0637
                  CHANNELS 6 Xposition Yposition Zposition Zrotation Xrotation Yrotation
                  JOINT LeftFinger31
                  {
                    OFFSET -0.1927 -3.8059 -0.2383
                    CHANNELS 6 Xposition Yposition Zposition Zrotation Xrotation Yrotation
                    JOINT LeftFinger32
                    {
                      OFFSET -0.1091 -2.1688 -0.1362
                      CHANNELS 6 Xposition Yposition Zposition Zrotation Xrotation Yrotation
                      End Site
                      {
                        OFFSET -0.2358 -1.9176 -0.0906
                      }
                    }
                  }
                }
                JOINT LeftFinger4
                {
                  OFFSET -0.6151 -8.0947 -3.5641
                  CHANNELS 6 Xposition Yposition Zposition Zrotation Xrotation Yrotation
                  JOINT LeftFinger41
                  {
                    OFFSET -0.4882 -2.341 -0.6462
                    CHANNELS 6 Xposition Yposition Zposition Zrotation Xrotation Yrotation
                    JOINT LeftFinger42
                    {
                      OFFSET -0.3575 -1.7167 -0.4742
                      CHANNELS 6 Xposition Yposition Zposition Zrotation Xrotation Yrotation
                      End Site
                      {
                        OFFSET -0.4187 -1.5237 -0.3496
                      }
                    }
                  }
                }
                JOINT LeftFinger0
                {
                  OFFSET -1.42 -1.8761 1.4223
                  CHANNELS 6 Xposition Yposition Zposition Zrotation Xrotation Yrotation
                  JOINT LeftFinger01
                  {
                    OFFSET -1.1471 -3.4929 2.6334
                    CHANNELS 6 Xposition Yposition Zposition Zrotation Xrotation Yrotation
                    JOINT LeftFinger02
                    {
                      OFFSET -0.823 -2.3 1.6571
                      CHANNELS 6 Xposition Yposition Zposition Zrotation Xrotation Yrotation
                      End Site
                      {
                        OFFSET -0.5822 -1.6914 1.1582
                      }
                    }
                  }
                }
              }
            }
          }
        }
        JOINT RightCollar
        {
          OFFSET -2.2603 21.606 7.4023
          CHANNELS 6 Xposition Yposition Zposition Zrotation Xrotation Yrotation
          JOINT RightShoulder
          {
            OFFSET -13.5187 -1.1334 -5.0155
            CHANNELS 6 Xposition Yposition Zposition Zrotation Xrotation Yrotation
            JOINT RightElbow
            {
              OFFSET 0.0994 -28.0499 -0.2431
              CHANNELS 6 Xposition Yposition Zposition Zrotation Xrotation Yrotation
              JOINT RightWrist
              {
                OFFSET -0.0679 -23.3996 -0.1402
                CHANNELS 6 Xposition Yposition Zposition Zrotation Xrotation Yrotation
                JOINT RightFinger1
                {
                  OFFSET -0.7932 -9.0691 2.5189
                  CHANNELS 6 Xposition Yposition Zposition Zrotation Xrotation Yrotation
                  JOINT RightFinger11
                  {
                    OFFSET 0.8272 -3.3923 0.5977
                    CHANNELS 6 Xposition Yposition Zposition Zrotation Xrotation Yrotation
                    JOINT RightFinger12
                    {
                      OFFSET 0.565 -2.3158 0.4082
                      CHANNELS 6 Xposition Yposition Zposition Zrotation Xrotation Yrotation
                      End Site
                      {
                        OFFSET 0.4919 -1.6479 0.2673
                      }
                    }
                  }
                }
                JOINT RightFinger2
                {
                  OFFSET -0.916 -9.2044 0.2193
                  CHANNELS 6 Xposition Yposition Zposition Zrotation Xrotation Yrotation
                  JOINT RightFinger21
                  {
                    OFFSET -0.0117 -4.1944 -0.0248
                    CHANNELS 6 Xposition Yposition Zposition Zrotation Xrotation Yrotation
                    JOINT RightFinger22
                    {
                      OFFSET -0.0071 -2.3249 -0.0142
                      CHANNELS 6 Xposition Yposition Zposition Zrotation Xrotation Yrotation
                      End Site
                      {
                        OFFSET 0.1475 -2.0882 0.0028
                      }
                    }
                  }
                }
                JOINT RightFinger3
                {
                  OFFSET -0.6113 -8.7231 -2.0637
                  CHANNELS 6 Xposition Yposition Zposition Zrotation Xrotation Yrotation
                  JOINT RightFinger31
                  {
                    OFFSET 0.1927 -3.8059 -0.2383
                    CHANNELS 6 Xposition Yposition Zposition Zrotation Xrotation Yrotation
                    JOINT RightFinger32
                    {
                      OFFSET 0.1091 -2.1688 -0.1362
                      CHANNELS 6 Xposition Yposition Zposition Zrotation Xrotation Yrotation
                      End Site
                      {
                        OFFSET 0.2358 -1.9176 -0.0906
                      }
                    }
                  }
                }
                JOINT RightFinger4
                {
                  OFFSET 0.6151 -8.0947 -3.564
                  CHANNELS 6 Xposition Yposition Zposition Zrotation Xrotation Yrotation
                  JOINT RightFinger41
                  {
                    OFFSET 0.4882 -2.341 -0.6462
                    CHANNELS 6 Xposition Yposition Zposition Zrotation Xrotation Yrotation
                    JOINT RightFinger42
                    {
                      OFFSET 0.3574 -1.7166 -0.4742
                      CHANNELS 6 Xposition Yposition Zposition Zrotation Xrotation Yrotation
                      End Site
                      {
                        OFFSET 0.4187 -1.5237 -0.3496
                      }
                    }
                  }
                }
                JOINT RightFinger0
                {
                  OFFSET 1.4199 -1.8761 1.4221
                  CHANNELS 6 Xposition Yposition Zposition Zrotation Xrotation Yrotation
                  JOINT RightFinger01
                  {
                    OFFSET 1.1472 -3.4929 2.6336
                    CHANNELS 6 Xposition Yposition Zposition Zrotation Xrotation Yrotation
                    JOINT RightFinger02
                    {
                      OFFSET 0.8229 -2.3 1.6571
                      CHANNELS 6 Xposition Yposition Zposition Zrotation Xrotation Yrotation
                      End Site
                      {
                        OFFSET 0.5822 -1.6914 1.1582
                      }
                    }
                  }
                }
              }
            }
          }
        }
      }
    }
  }
  JOINT RightHip
  {
    OFFSET -9.412 3.9771 -0.7758
    CHANNELS 6 Xposition Yposition Zposition Zrotation Xrotation Yrotation
    JOINT RightKnee
    {
      OFFSET -0.7531 -40.938 0
      CHANNELS 6 Xposition Yposition Zposition Zrotation Xrotation Yrotation
      JOINT RightAnkle
      {
        OFFSET 0 -40.1986 0
        CHANNELS 6 Xposition Yposition Zposition Zrotation Xrotation Yrotation
        JOINT RightToe
        {
          OFFSET 0 -4.4182 9.239
          CHANNELS 6 Xposition Yposition Zposition Zrotation Xrotation Yrotation
          End Site
          {
            OFFSET 0 0 6.1981
          }
        }
      }
    }
  }
  JOINT LeftHip
  {
    OFFSET 9.4119 3.9773 -0.7758
    CHANNELS 6 Xposition Yposition Zposition Zrotation Xrotation Yrotation
    JOINT LeftKnee
    {
      OFFSET 0.7532 -40.9383 0
      CHANNELS 6 Xposition Yposition Zposition Zrotation Xrotation Yrotation
      JOINT LeftAnkle
      {
        OFFSET 0 -40.1986 0
        CHANNELS 6 Xposition Yposition Zposition Zrotation Xrotation Yrotation
        JOINT LeftToe
        {
          OFFSET 0 -4.4182 9.239
          CHANNELS 6 Xposition Yposition Zposition Zrotation Xrotation Yrotation
          End Site
          {
            OFFSET 0 0 6.1981
          }
        }
      }
    }
  }
}
MOTION
Frames:	4
Frame Time:	0.0333333
5.80788e-005 67.184 3.4734 0 0 -0 0 8.7983 -4.7612 0 0 -0 0 8.0291 0.4195 0 0 -0 0 9.9351 -2.2114 0 0 -0 0 22.3885 -0.4656 0 0 -0 -0.0001 12.643 3.4389 0 0 -0 2.2603 21.606 7.4023 0 0 -12.5014 13.5163 -1.1332 -5.0146 88.1196 14.2451 10.6914 -0.0995 -28.05 -0.2431 -0.00160068 -0.00239207 0.000740045 0.0679 -23.3996 -0.1402 -8.4365e-005 7.00714e-005 -9.52055e-007 0.7932 -9.069 2.5189 9.93923e-017 -1.98785e-016 -1.59028e-015 -0.8272 -3.3923 0.5977 9.93923e-017 -5.96354e-016 -1.59028e-015 -0.5649 -2.3158 0.4082 -9.93923e-017 -5.96354e-016 -1.59028e-015 0.9159 -9.2044 0.2193 9.93923e-017 -1.98785e-016 -1.59028e-015 0.0117 -4.1944 -0.0248 -0.0128176 0.00232552 8.52707e-005 0.0071 -2.3249 -0.0142 9.93923e-017 5.96354e-016 -0 0.6113 -8.7231 -2.0637 9.93923e-017 -1.98785e-016 -1.59028e-015 -0.1927 -3.8059 -0.2383 -0.0160551 0.00299681 0.000857156 -0.1091 -2.1688 -0.1362 -2.48481e-016 0 3.18055e-015 -0.6151 -8.0947 -3.5641 9.93923e-017 -1.98785e-016 -1.59028e-015 -0.4882 -2.341 -0.6462 -0.0125865 0.0031206 0.00282719 -0.3575 -1.7167 -0.4742 0 1.98785e-016 -0 -1.42 -1.8761 1.4223 9.93923e-017 -1.98785e-016 -1.59028e-015 -1.1471 -3.4929 2.6334 9.93923e-017 -5.96354e-016 -1.59028e-015 -0.823 -2.3 1.6571 -9.93923e-017 -5.96354e-016 -1.59028e-015 -2.2603 21.606 7.4023 -0.865644 0.16582 7.03859 -13.5187 -1.1334 -5.0155 -88.0329 10.2057 -10.5567 0.0994 -28.0499 -0.2431 0.0015593 -0.00248883 -0.000788628 -0.0679 -23.3996 -0.1402 7.87605e-005 4.10553e-005 1.24965e-005 -0.7932 -9.0691 2.5189 -3.97569e-016 -7.95139e-016 3.18055e-015 0.8272 -3.3923 0.5977 -1.98785e-016 -3.97569e-016 3.18055e-015 0.565 -2.3158 0.4082 -1.98785e-016 0 3.18055e-015 -0.916 -9.2044 0.2193 -3.97569e-016 -7.95139e-016 3.18055e-015 -0.0117 -4.1944 -0.0248 0.0129473 0.00231697 -8.70038e-005 -0.0071 -2.3249 -0.0142 9.93923e-017 -7.95139e-016 1.59028e-015 -0.6113 -8.7231 -2.0637 -3.97569e-016 -7.95139e-016 3.18055e-015 0.1927 -3.8059 -0.2383 0.0163314 0.00303369 -0.000872333 0.1091 -2.1688 -0.1362 3.97569e-016 7.95139e-016 -3.18055e-015 0.6151 -8.0947 -3.564 -3.97569e-016 -7.95139e-016 3.18055e-015 0.4882 -2.341 -0.6462 0.0145763 0.00367772 -0.00326275 0.3574 -1.7166 -0.4742 9.93923e-017 -3.97569e-016 -0 1.4199 -1.8761 1.4221 -3.97569e-016 -7.95139e-016 3.18055e-015 1.1472 -3.4929 2.6336 -1.98785e-016 -3.97569e-016 3.18055e-015 0.8229 -2.3 1.6571 -1.98785e-016 0 3.18055e-015 -9.412 3.9771 -0.7758 3.42485 1.36937 -0.0640303 -0.7531 -40.938 0 0.000136572 0.69354 0.00145564 1.77636e-015 -40.1986 -1.11022e-016 -3.42573 -2.06297 -0.0607933 8.88178e-016 -4.4182 9.239 -3.19502e-024 0 -1.48106e-024 9.4119 3.9773 -0.7758 -3.42498 1.36123 0.0639712 0.7532 -40.9383 2.22045e-016 -6.769e-005 0.712612 -0.0012277 8.88179e-016 -40.1986 0 3.42582 -2.07388 0.0612819 -8.88178e-016 -4.4182 9.239 2.55305e-023 0 -2.31416e-026 
-0.0696079 18.101 -1.19287 -2.89582 14.2507 -168.388 -4.996e-016 8.7983 -4.7612 -0.649228 19.2372 0.0355371 -1.11022e-016 8.0291 0.4195 -1.44714 38.4726 0.351603 0 9.9351 -2.2114 -1.44714 38.4723 0.351604 6.66134e-016 22.3885 -0.4656 6.94383e-005 -0.31557 1.11128e-005 -0.0001 12.643 3.4389 0.478326 -0.832977 0.0622267 2.2603 21.606 7.4023 -12.3238 -19.6429 -31.8728 13.5163 -1.1332 -5.0146 30.8663 -59.5333 -23.9557 -0.0995 -28.05 -0.2431 11.629 -2.0143 14.522 0.0679 -23.3996 -0.1402 43.9419 -20.0967 -4.1493 0.7932 -9.06901 2.5189 3.12018e-006 9.59396e-007 -6.06767e-007 -0.8272 -3.3923 0.5977 6.32257e-006 -1.84434e-006 -1.06032e-006 -0.5649 -2.3158 0.4082 3.85588e-006 2.07746e-006 8.23933e-008 0.9159 -9.20441 0.2193 3.12018e-006 9.59396e-007 -6.06767e-007 0.0117 -4.1944 -0.0248 -0.0127716 0.00231496 8.57156e-005 0.0071 -2.3249 -0.0142 1.24145e-006 3.49656e-006 -2.06132e-006 0.6113 -8.72311 -2.0637 3.12018e-006 9.59396e-007 -6.06767e-007 -0.1927 -3.8059 -0.2383 -0.0160734 0.00299646 0.000862519 -0.1091 -2.1688 -0.1362 -1.03368e-014 3.18055e-015 4.77083e-015 -0.6151 -8.09471 -3.5641 3.12018e-006 9.59396e-007 -6.06767e-007 -0.4882 -2.341 -0.6462 -0.0125584 0.00310494 0.0028265 -0.3575 -1.7167 -0.4742 2.82766e-006 1.02922e-005 -7.17994e-006 -1.42 -1.8761 1.4223 3.12018e-006 9.59396e-007 -6.06767e-007 -1.1471 -3.4929 2.6334 6.32257e-006 -1.84434e-006 -1.06032e-006 -0.823 -2.3 1.6571 3.85588e-006 2.07746e-006 8.23933e-008 -2.2603 21.606 7.4023 9.76082 -19.8577 23.6723 -13.5187 -1.1334 -5.0155 -22.5835 -62.2428 32.8752 0.0994 -28.0499 -0.2431 -11.0888 -1.89101 -14.7356 -0.0679 -23.3996 -0.1402 -39.1087 -17.7033 2.66596 -0.7932 -9.06911 2.5189 3.18055e-015 0 4.77083e-015 0.8272 -3.3923 0.5977 -9.54166e-015 0 -7.95139e-015 0.565 -2.3158 0.4082 3.18055e-015 3.18055e-015 -0 -0.916 -9.20441 0.2193 3.18055e-015 0 4.77083e-015 -0.0117 -4.1944 -0.0248 0.0129328 0.00231897 -8.89992e-005 -0.0071 -2.3249 -0.0142 3.18055e-015 0 -0 -0.6113 -8.72311 -2.0637 3.18055e-015 0 4.77083e-015 0.1927 -3.8059 -0.2383 0.016361 0.00302953 -0.000872709 0.1091 -2.1688 -0.1362 -9.54166e-015 3.18055e-015 6.36111e-015 0.6151 -8.09471 -3.564 3.18055e-015 0 4.77083e-015 0.4882 -2.341 -0.6462 0.0146004 0.0036808 -0.00327076 0.3574 -1.7166 -0.4742 1.76556e-031 3.18055e-015 -3.18055e-015 1.4199 -1.8761 1.4221 3.18055e-015 0 4.77083e-015 1.1472 -3.4929 2.6336 -9.54166e-015 0 -7.95139e-015 0.8229 -2.3 1.6571 3.18055e-015 3.18055e-015 -0 -9.412 3.9771 -0.7758 -86.2179 -44.5869 -97.4167 -0.7531 -40.938 0 -167.678 65.7486 166.887 0 -40.1986 0 -0.238019 -20.2539 -0.150319 -1.77636e-015 -4.4182 9.239 3.18055e-015 7.44266e-008 6.36111e-015 9.4119 3.9773 -0.7758 86.2431 -44.6987 97.3675 0.7532 -40.9383 0 167.73 65.7558 -166.938 -1.77636e-015 -40.1986 0 0.157903 -20.242 0.191916 3.55271e-015 -4.4182 9.239 -1.59028e-015 3.85047e-008 6.36111e-015 
0.999437 19.9723 -1.33908 -8.56553e-015 12.4475 -180 0 8.7983 -4.7612 -0.603627 17.3161 0.0255144 0 8.0291 0.4195 -1.31322 34.631 0.273467 0 9.9351 -2.2114 -1.31321 34.6308 0.273462 0 22.3885 -0.4656 5.85692e-005 -0.295726 6.18941e-006 -0.0001 12.643 3.4389 0.928662 -1.63021 0.282347 2.2603 21.606 7.4023 -11.1165 -16.9489 -30.2397 13.5163 -1.1332 -5.0146 31.5024 -55.1081 -24.1943 -0.0995 -28.05 -0.2431 10.9444 -1.89229 13.6263 0.0679 -23.3996 -0.1402 40.5732 -18.3987 -4.42453 0.7932 -9.06901 2.5189 2.26881e-007 1.0822e-006 5.74139e-006 -0.827199 -3.3923 0.5977 5.06708e-006 -2.38717e-008 -8.21e-006 -0.5649 -2.3158 0.4082 -3.53113e-031 -3.18055e-015 -6.36111e-015 0.915899 -9.20441 0.2193 2.26881e-007 1.0822e-006 5.74139e-006 0.0117 -4.1944 -0.0248 -0.0128412 0.00231229 8.10124e-005 0.0071 -2.3249 -0.0142 -2.76009e-006 -1.44117e-006 -1.6365e-006 0.6113 -8.72311 -2.0637 2.26881e-007 1.0822e-006 5.74139e-006 -0.1927 -3.8059 -0.2383 -0.0160588 0.00298881 0.000859358 -0.1091 -2.1688 -0.1362 -3.18055e-015 0 4.77083e-015 -0.6151 -8.09471 -3.5641 2.26881e-007 1.0822e-006 5.74139e-006 -0.4882 -2.341 -0.6462 -0.0125635 0.00311159 0.00282096 -0.3575 -1.7167 -0.4742 -1.91295e-006 6.29411e-006 1.52355e-006 -1.42 -1.8761 1.4223 2.26881e-007 1.0822e-006 5.74139e-006 -1.1471 -3.4929 2.6334 5.06708e-006 -2.38717e-008 -8.21e-006 -0.822999 -2.3 1.6571 -3.53113e-031 -3.18055e-015 -6.36111e-015 -2.2603 21.606 7.4023 8.87821 -17.0989 22.4728 -13.5187 -1.1334 -5.0155 -24.3045 -57.8725 32.2785 0.0994 -28.0499 -0.2431 -10.4369 -1.77605 -13.8334 -0.0679 -23.3996 -0.1402 -35.9359 -16.272 3.11406 -0.7932 -9.0691 2.5189 5.13869e-007 -1.82984e-006 2.90909e-006 0.8272 -3.3923 0.5977 2.60976e-006 5.64828e-006 1.68548e-006 0.565 -2.3158 0.4082 -1.90833e-014 6.36111e-015 1.59028e-014 -0.916 -9.2044 0.2193 5.13869e-007 -1.82984e-006 2.90909e-006 -0.0117 -4.1944 -0.0248 0.0129174 0.00232272 -8.3315e-005 -0.0071 -2.3249 -0.0142 -1.98205e-006 2.81315e-007 1.86361e-006 -0.6113 -8.7231 -2.0637 5.13869e-007 -1.82984e-006 2.90909e-006 0.1927 -3.8059 -0.2383 0.0163816 0.00304879 -0.000864032 0.1091 -2.1688 -0.1362 -6.36111e-015 9.54166e-015 1.59028e-015 0.6151 -8.0947 -3.564 5.13869e-007 -1.82984e-006 2.90909e-006 0.4882 -2.341 -0.6462 0.0146195 0.00368461 -0.00326842 0.3574 -1.7166 -0.4742 6.36111e-015 3.18055e-015 -4.77083e-015 1.4199 -1.8761 1.4221 5.13869e-007 -1.82984e-006 2.90909e-006 1.1472 -3.4929 2.6336 2.60976e-006 5.64828e-006 1.68548e-006 0.8229 -2.3 1.6571 -1.90833e-014 6.36111e-015 1.59028e-014 -9.412 3.9771 -0.7758 -82.2545 -47.7198 -95.2587 -0.7531 -40.938 -7.10543e-015 -165.486 71.1385 165.089 3.55271e-015 -40.1986 0 -0.723906 -18.8551 -0.265261 7.10543e-015 -4.4182 9.239 -3.18055e-015 7.71879e-008 -0 9.4119 3.9773 -0.7758 82.2655 -47.812 95.1989 0.7532 -40.9383 -3.55271e-015 165.543 71.1451 -165.144 0 -40.1986 0 0.654687 -18.8448 0.3008 -3.55271e-015 -4.4182 9.239 -8.26029e-007 -3.04903e-007 7.07966e-008 
0.999449 19.0235 -1.2209 -8.41643e-015 11.2815 -180 0 8.7983 -4.7612 -0.595779 16.5678 0.00878438 0 8.0291 0.4195 -1.28071 33.1346 0.221714 -2.22045e-016 9.9351 -2.2114 -1.28071 33.1344 0.22171 0 22.3885 -0.4656 5.41173e-005 -0.294433 7.67647e-006 -0.0001 12.643 3.4389 1.38563 -2.43081 0.501342 2.2603 21.606 7.4023 -11.0372 -15.3796 -29.8939 13.5163 -1.1332 -5.0146 31.5022 -55.1082 -24.1944 -0.0995 -28.05 -0.2431 10.9444 -1.89221 13.6263 0.0679 -23.3996 -0.1402 39.9413 -17.8076 -4.77052 0.7932 -9.069 2.5189 8.05616e-006 6.14593e-006 -8.4272e-007 -0.8272 -3.3923 0.5977 9.54166e-015 3.18055e-015 4.77083e-015 -0.5649 -2.3158 0.4082 -8.05616e-006 -6.14593e-006 8.42719e-007 0.9159 -9.2044 0.2193 8.05616e-006 6.14593e-006 -8.4272e-007 0.0117 -4.1944 -0.0248 -0.0128686 0.00233333 8.90588e-005 0.0071 -2.3249 -0.0142 -3.18055e-015 0 -9.54166e-015 0.6113 -8.7231 -2.0637 8.05616e-006 6.14593e-006 -8.4272e-007 -0.1927 -3.8059 -0.2383 -0.0160506 0.0029891 0.000851124 -0.1091 -2.1688 -0.1362 -6.36111e-015 6.36111e-015 4.77083e-015 -0.6151 -8.0947 -3.5641 8.05616e-006 6.14593e-006 -8.4272e-007 -0.4882 -2.341 -0.6462 -0.0125867 0.00311428 0.00282028 -0.3575 -1.7167 -0.4742 -2.14379e-006 -1.1752e-005 -4.21447e-006 -1.42 -1.8761 1.4223 8.05616e-006 6.14593e-006 -8.4272e-007 -1.1471 -3.4929 2.6334 9.54166e-015 3.18055e-015 4.77083e-015 -0.823 -2.3 1.6571 -8.05616e-006 -6.14593e-006 8.42719e-007 -2.2603 21.606 7.4023 8.95918 -15.5183 22.3662 -13.5187 -1.1334 -5.0155 -24.3045 -57.8725 32.2785 0.0994 -28.0499 -0.2431 -10.4368 -1.77609 -13.8334 -0.0679 -23.3996 -0.1402 -35.2027 -15.8102 3.57271 -0.7932 -9.06911 2.5189 -8.74136e-006 4.70653e-007 -3.59949e-006 0.8272 -3.3923 0.5977 6.16217e-006 -2.27469e-006 -4.33126e-006 0.565 -2.3158 0.4082 -1.13917e-005 6.46484e-006 9.68297e-007 -0.916 -9.20441 0.2193 -8.74136e-006 4.70653e-007 -3.59949e-006 -0.0117 -4.1944 -0.0248 0.0129401 0.00230807 -9.23346e-005 -0.0071 -2.3249 -0.0142 -1.06065e-005 5.96262e-006 -1.10675e-006 -0.6113 -8.72311 -2.0637 -8.74136e-006 4.70653e-007 -3.59949e-006 0.1927 -3.8059 -0.2383 0.0163424 0.00304213 -0.00087395 0.1091 -2.1688 -0.1362 3.39954e-006 2.95756e-006 -3.92973e-007 0.6151 -8.0947 -3.564 -8.74136e-006 4.70653e-007 -3.59949e-006 0.4882 -2.341 -0.6462 0.01457 0.00368176 -0.00326374 0.3574 -1.7166 -0.4742 2.76349e-006 -2.21346e-006 -3.93798e-006 1.4199 -1.8761 1.4221 -8.74136e-006 4.70653e-007 -3.59949e-006 1.1472 -3.4929 2.6336 6.16217e-006 -2.27469e-006 -4.33126e-006 0.8229 -2.3 1.6571 -1.13917e-005 6.46484e-006 9.68297e-007 -9.412 3.9771 -0.7758 -85.5293 -47.884 -98.8639 -0.7531 -40.938 -3.55271e-015 -166.081 70.1528 165.597 0 -40.1986 7.10543e-015 -1.0472 -18.5179 -0.505388 3.55271e-015 -4.4182 9.239 -1.65209e-006 -3.02108e-007 1.40915e-007 9.4119 3.9773 -0.7758 85.5454 -47.9691 98.8156 0.7532 -40.9383 -3.55271e-015 166.131 70.1586 -165.644 0 -40.1986 7.10543e-015 0.984321 -18.5087 0.537747 -3.55271e-015 -4.4182 9.239 -2.98168e-006 1.34828e-006 5.08783e-006 
